<?xml version="1.0" encoding="utf-8"?>
<svg viewBox="40.736 241.349 374.942 59.381" xmlns="http://www.w3.org/2000/svg">
  <path d="M 80.574 282.728 C 80.574 287.273 81.617 289.546 83.699 289.546 C 85.046 289.546 86.168 288.561 87.061 286.594 C 87.271 286.247 87.578 286.142 87.98 286.28 C 88.156 286.351 88.198 286.489 88.111 286.698 C 88.024 286.926 87.893 287.195 87.717 287.508 C 87.56 287.822 87.263 288.318 86.824 288.997 C 85.808 290.46 84.645 291.191 83.332 291.191 C 79.269 291.191 77.239 287.986 77.239 281.579 C 77.239 274.351 79.813 263.066 84.959 247.725 C 85.098 247.325 85.019 247.124 84.722 247.124 C 84.441 247.124 84.137 247.273 83.803 247.568 C 82.018 249.24 80.187 251.479 78.316 254.281 C 76.459 257.084 74.823 259.932 73.405 262.823 C 70.918 267.805 69.09 271.947 67.917 275.257 C 66.341 279.907 64.949 282.232 63.741 282.232 C 63.024 282.232 62.665 281.874 62.665 281.161 C 62.665 281.127 62.683 281.09 62.717 281.056 C 66.919 265.924 69.02 256.416 69.019 252.531 C 69.019 250.789 68.633 249.919 67.863 249.919 C 66.322 249.919 63.89 252.785 60.564 258.513 C 57.221 264.26 54.708 270.007 53.027 275.753 C 51.013 282.668 49.237 286.124 47.696 286.124 C 46.995 286.124 46.646 285.758 46.646 285.027 C 46.68 284.922 46.777 284.643 46.934 284.191 C 47.11 283.721 47.328 283.023 47.591 282.101 C 47.854 281.179 48.282 279.724 48.878 277.739 C 49.474 275.753 49.973 273.82 50.375 271.94 C 51.722 265.723 52.397 261.238 52.397 258.487 C 52.397 257.024 52.292 255.561 52.081 254.099 C 51.87 252.654 51.364 251.479 50.557 250.572 C 49.751 249.666 48.693 249.214 47.38 249.214 C 45.331 249.214 43.887 250.068 43.047 251.774 C 42.784 252.382 42.653 252.897 42.654 253.315 C 42.654 253.733 42.767 253.942 42.995 253.942 C 42.909 254.412 42.504 254.647 41.787 254.647 C 41.086 254.647 40.737 254.195 40.737 253.289 C 40.736 251.912 41.437 250.695 42.837 249.632 C 44.221 248.553 45.804 248.012 47.59 248.012 C 49.376 248.012 50.794 248.456 51.844 249.344 C 52.913 250.233 53.682 251.408 54.155 252.871 C 54.926 255.326 55.312 257.972 55.312 260.812 C 55.312 261.875 55.241 262.98 55.101 264.129 L 55.6 264.129 C 60.958 253.349 65.447 247.96 69.071 247.96 C 71.154 247.96 72.196 249.736 72.197 253.289 C 72.197 254.995 71.811 257.983 71.042 262.249 L 71.488 262.249 C 77.65 250.721 82.693 244.956 86.613 244.956 C 88.136 244.956 88.898 245.792 88.898 247.464 C 87.847 250.042 86.685 253.55 85.406 257.991 C 82.184 268.996 80.574 277.242 80.574 282.728 Z M 90.909 299.576 C 93.937 299.576 96.311 298.158 98.025 295.319 C 99.496 292.811 100.632 289.684 101.438 285.941 C 95.364 286.064 90.69 288.37 87.416 292.863 C 87.224 293.158 86.909 293.203 86.471 292.994 C 86.227 292.871 86.155 292.706 86.26 292.497 C 87.712 290.322 89.734 288.475 92.326 286.96 C 94.899 285.445 98.043 284.617 101.753 284.478 C 102.121 282.806 102.47 280.847 102.804 278.601 C 103.137 276.373 103.521 274.204 103.959 272.096 L 103.513 272.096 C 99.135 279.81 95.811 283.668 93.534 283.668 C 90.979 283.668 89.7 281.717 89.7 277.817 C 89.7 273.899 90.54 269.962 92.221 266.01 C 93.902 262.04 95.425 259.905 96.79 259.61 L 97.105 259.558 C 97.683 259.558 97.972 259.924 97.972 260.655 C 97.604 261.562 97.132 262.737 96.554 264.182 C 95.976 265.644 95.215 268.04 94.269 271.365 C 93.342 274.69 92.877 277.287 92.877 279.149 C 92.877 280.996 93.279 281.918 94.085 281.918 C 95.031 281.918 96.546 280.299 98.628 277.06 C 101.675 272.305 104.327 267.491 106.585 262.614 C 107.565 260.577 108.608 259.558 109.71 259.558 C 110.412 259.558 110.761 259.942 110.761 260.707 C 110.131 261.875 109.361 264.059 108.45 267.264 C 107.539 270.485 106.803 273.724 106.244 276.981 C 105.666 280.239 105.175 282.788 104.773 284.635 C 107.329 285.071 108.81 286.176 109.211 287.952 C 109.282 288.247 109.317 288.658 109.317 289.18 C 109.317 289.684 109.114 290.128 108.713 290.512 C 108.311 290.896 107.951 291.087 107.636 291.087 C 107.707 290.86 107.723 290.452 107.688 289.859 C 107.654 289.284 107.549 288.796 107.373 288.396 C 107.182 287.997 106.83 287.579 106.323 287.142 C 105.832 286.706 105.175 286.385 104.353 286.176 C 101.781 295.875 97.298 300.726 90.909 300.726 C 88.144 300.726 86.313 299.759 85.42 297.826 C 85.386 297.722 85.368 297.636 85.368 297.565 C 85.368 297.374 85.544 297.252 85.893 297.199 C 86.242 297.147 86.505 297.252 86.681 297.513 C 87.277 298.889 88.685 299.576 90.909 299.576 Z M 142.19 258.095 C 142.19 258.234 142.04 258.322 141.743 258.356 C 141.462 258.39 141.181 258.338 140.903 258.2 C 140.603 258.061 140.456 257.878 140.456 257.651 C 140.456 254.237 140.849 251.486 141.637 249.397 C 142.407 247.307 143.412 246.262 144.657 246.262 C 144.988 246.262 145.269 246.374 145.497 246.602 C 145.742 246.845 145.865 247.168 145.865 247.568 C 144.324 249.101 143.229 251.337 142.584 254.281 C 142.321 255.483 142.19 256.755 142.19 258.095 Z M 139.142 247.464 C 134.521 247.464 130.371 250.154 126.696 255.535 C 123.545 260.185 121.478 265.6 120.498 271.783 C 120.165 273.82 119.999 275.693 119.999 277.399 C 119.999 280.672 120.603 283.31 121.811 285.314 C 123.019 287.299 124.716 288.292 126.906 288.292 C 129.863 288.292 132.384 286.602 134.469 283.224 C 135.887 280.944 136.596 278.94 136.596 277.216 C 136.596 276.433 136.394 276.041 135.992 276.041 C 136.184 275.275 136.683 274.891 137.489 274.891 C 138.434 274.891 138.907 275.563 138.907 276.903 C 138.907 279.41 137.794 282.083 135.572 284.922 C 132.909 288.3 129.802 289.99 126.249 289.99 C 121.785 289.99 118.755 287.769 117.163 283.329 C 116.391 281.257 116.008 278.906 116.008 276.276 C 116.008 273.645 116.444 270.712 117.321 267.473 C 119.001 261.065 121.838 255.736 125.828 251.486 C 129.801 247.236 134.213 245.094 139.064 245.06 C 139.728 245.06 140.209 245.277 140.508 245.713 C 140.823 246.15 140.962 246.568 140.928 246.967 L 140.928 247.62 C 140.647 247.516 140.051 247.464 139.142 247.464 Z M 149.635 284.321 C 145.504 284.321 143.437 281.5 143.437 275.858 C 143.437 272.671 144.243 269.492 145.853 266.323 C 147.901 262.319 150.344 260.316 153.18 260.316 C 153.584 260.316 153.915 260.412 154.178 260.603 C 154.44 260.812 154.624 261.117 154.729 261.517 C 152.612 261.517 150.782 263.207 149.241 266.585 C 147.702 269.962 146.93 273.29 146.93 276.563 C 146.93 280.534 148.017 282.519 150.186 282.519 C 151.431 282.519 152.725 281.579 154.073 279.698 C 155.422 277.799 156.541 275.317 157.434 272.253 C 158.327 269.171 158.773 266.07 158.773 262.954 L 158.773 262.353 C 157.723 261.692 156.867 260.856 156.2 259.845 C 155.517 258.853 155.175 258.121 155.175 257.651 C 155.175 257.181 155.386 256.737 155.806 256.319 C 156.226 255.901 156.657 255.692 157.093 255.692 C 157.741 255.692 158.364 256.259 158.957 257.39 C 159.572 258.539 159.992 259.827 160.218 261.256 C 161.268 261.953 162.187 262.301 162.975 262.301 C 163.763 262.301 164.393 262.17 164.866 261.909 C 164.866 262.379 164.7 262.797 164.367 263.163 C 164.036 263.528 163.511 263.711 162.791 263.711 C 162.093 263.711 161.286 263.547 160.375 263.215 C 160.341 266.42 159.86 269.649 158.931 272.906 C 157.985 276.145 156.672 278.862 154.992 281.056 C 153.311 283.232 151.525 284.321 149.635 284.321 Z M 181.961 287.639 C 182.363 287.639 182.739 287.464 183.091 287.116 C 183.44 286.769 183.773 286.22 184.088 285.471 C 184.123 285.176 184.325 285.027 184.692 285.027 C 185.06 285.027 185.199 285.176 185.113 285.471 C 185.023 285.784 184.892 286.158 184.719 286.594 C 184.524 287.03 184.13 287.605 183.537 288.318 C 182.959 289.031 182.363 289.389 181.751 289.389 C 180.42 289.389 179.377 288.553 178.626 286.881 C 177.854 285.209 177.471 283.146 177.471 280.69 C 177.471 278.235 177.655 275.701 178.022 273.089 L 177.576 273.089 C 173.513 280.142 170.388 283.668 168.201 283.668 C 165.609 283.668 164.314 281.709 164.314 277.791 C 164.314 273.854 165.155 269.928 166.835 266.01 C 168.689 261.708 170.317 259.558 171.72 259.558 C 172.332 259.558 172.639 259.924 172.639 260.655 C 171.221 264.364 170.013 267.977 169.015 271.496 C 167.999 274.996 167.492 277.608 167.492 279.332 C 167.492 281.056 167.894 281.918 168.7 281.918 C 169.277 281.918 170.126 281.231 171.247 279.855 C 172.366 278.496 173.521 276.824 174.713 274.839 C 177.234 270.607 179.151 267.003 180.464 264.025 C 181.793 261.047 183.169 259.558 184.587 259.558 C 185.252 259.558 185.585 259.924 185.585 260.655 C 183.432 264.905 181.909 269.973 181.016 275.858 C 180.63 278.191 180.438 280.481 180.438 282.728 C 180.438 286.001 180.945 287.639 181.961 287.639 Z M 204.309 269.484 C 203.03 269.484 202.392 268.1 202.392 265.331 C 202.392 263.745 202.689 262.275 203.285 260.916 C 201.008 262.883 198.453 266.551 195.617 271.914 C 192.796 277.276 191.389 280.777 191.389 282.414 C 191.389 282.814 191.116 283.015 190.575 283.015 C 189.611 283.015 189.131 281.701 189.131 279.071 C 189.131 274.089 189.629 269.57 190.627 265.514 C 191.641 261.473 192.867 259.453 194.304 259.453 C 194.95 259.453 195.275 259.819 195.275 260.551 C 193.734 265.443 192.623 270.443 191.94 275.544 L 192.308 275.544 C 195.021 269.294 198.022 264.417 201.315 260.916 C 203.206 258.897 204.921 257.886 206.463 257.886 C 206.793 257.886 207.074 257.991 207.303 258.2 C 207.513 258.39 207.618 258.644 207.618 258.957 C 207.39 259.184 207.109 259.532 206.778 260.002 C 206.426 260.472 205.971 261.588 205.412 263.346 C 204.834 265.104 204.546 267.021 204.546 269.092 C 204.546 269.354 204.467 269.484 204.309 269.484 Z M 211.145 282.179 C 211.145 284.512 211.906 285.68 213.429 285.68 C 214.829 285.68 216.142 284.53 217.369 282.232 C 218.611 279.915 219.233 277.007 219.233 273.507 C 219.233 271.801 218.918 269.388 218.288 266.271 C 217.657 263.171 217.342 261.144 217.342 260.185 C 217.342 259.226 217.376 258.599 217.447 258.304 C 217.009 259.002 215.748 261.334 213.666 265.305 C 211.583 269.257 209.735 272.392 208.125 274.709 C 207.986 274.831 207.802 274.865 207.573 274.813 C 207.345 274.779 207.153 274.682 206.996 274.526 C 206.838 274.369 206.759 274.257 206.759 274.186 C 206.759 274.134 206.778 274.089 206.812 274.056 C 208.387 271.775 210.226 268.64 212.327 264.652 C 214.427 260.647 216.187 257.659 217.605 255.692 C 219.023 253.725 220.414 252.74 221.779 252.74 C 222.496 252.74 222.857 253.035 222.857 253.628 C 222.857 254.028 222.568 254.569 221.99 255.248 C 220.171 257.285 219.259 259.375 219.259 261.517 C 219.259 262.789 219.75 265.234 220.73 268.857 C 221.709 272.48 222.201 275.108 222.201 276.746 C 222.201 279.69 221.379 282.187 219.732 284.243 C 218.085 286.299 216.221 287.325 214.139 287.325 C 211.179 287.325 209.7 285.646 209.7 282.284 C 209.7 279.742 210.48 277.078 212.038 274.291 C 213.595 271.522 215.163 269.649 216.738 268.674 C 217.053 268.484 217.256 268.604 217.342 269.04 C 217.413 269.476 217.35 269.753 217.158 269.876 C 215.373 270.887 213.823 273.029 212.51 276.302 C 211.599 278.619 211.145 280.578 211.145 282.179 Z M 239.837 259.558 C 242.395 259.558 243.671 261.047 243.671 264.025 C 243.671 265.731 243.104 267.517 241.964 269.38 C 240.005 272.496 237.413 274.056 234.191 274.056 C 233.684 274.056 233.264 273.969 232.931 273.794 C 232.6 273.619 232.345 273.369 232.169 273.037 C 234.569 273.037 236.757 271.671 238.734 268.936 C 240.347 266.723 241.15 264.704 241.15 262.875 C 241.15 261.499 240.599 260.812 239.496 260.812 C 237.274 260.812 235.207 262.536 233.298 265.984 C 231.234 269.727 230.2 273.567 230.2 277.504 C 230.2 280.847 231.163 282.859 233.088 283.538 C 233.456 283.66 233.929 283.721 234.506 283.721 C 235.068 283.721 235.672 283.582 236.318 283.303 C 236.949 283.023 237.484 282.684 237.92 282.284 C 238.797 281.466 239.522 280.578 240.1 279.619 C 240.223 279.34 240.478 279.201 240.861 279.201 C 241.457 279.201 241.738 279.306 241.702 279.515 C 241.597 279.881 241.221 280.5 240.572 281.37 C 239.926 282.239 239.322 282.937 238.76 283.459 C 238.201 283.963 237.474 284.426 236.581 284.844 C 235.688 285.262 234.795 285.471 233.902 285.471 C 230.331 285.471 228.057 283.799 227.075 280.455 C 226.778 279.324 226.628 278.157 226.628 276.955 C 226.628 274.709 227.153 272.271 228.204 269.641 C 229.85 265.618 232.117 262.727 235.005 260.969 C 236.581 260.028 238.193 259.558 239.837 259.558 Z M 272.923 282.571 C 272.923 287.221 273.966 289.546 276.048 289.546 C 277.327 289.546 278.464 288.561 279.462 286.594 C 279.638 286.247 279.927 286.142 280.328 286.28 C 280.539 286.351 280.591 286.489 280.486 286.698 C 280.381 286.926 280.242 287.195 280.066 287.508 C 279.908 287.822 279.619 288.31 279.199 288.971 C 278.779 289.616 278.254 290.146 277.624 290.564 C 277.012 290.982 276.363 291.191 275.68 291.191 C 271.618 291.191 269.588 288.005 269.588 281.631 C 269.588 275.03 271.76 264.782 276.099 250.886 L 276.887 248.326 C 276.958 248.046 276.887 247.908 276.677 247.908 C 276.449 247.908 276.239 247.994 276.047 248.169 C 274.156 249.807 272.142 252.218 270.008 255.405 C 267.873 258.61 265.919 261.979 264.152 265.514 C 260.861 272.01 258.472 277.067 256.983 280.69 C 255.512 284.314 254.286 286.124 253.306 286.124 C 252.605 286.124 252.256 285.758 252.256 285.027 L 252.256 284.922 C 252.658 284.016 253.43 281.526 254.567 277.451 C 256.581 270.328 257.718 263.98 257.981 258.409 C 258.015 258.009 258.033 257.633 258.033 257.285 C 258.033 255.125 257.647 253.237 256.877 251.617 C 256.107 250.016 254.75 249.214 252.806 249.214 C 250.845 249.214 249.445 250.102 248.605 251.878 C 248.342 252.453 248.211 252.941 248.212 253.341 C 248.212 253.741 248.325 253.942 248.553 253.942 C 248.501 254.412 248.115 254.647 247.398 254.647 C 246.696 254.647 246.347 254.195 246.347 253.289 C 246.346 251.912 247.047 250.695 248.447 249.632 C 249.831 248.553 251.546 248.012 253.594 248.012 C 258.479 248.012 260.921 252.427 260.922 261.256 C 260.922 263.171 260.756 265.114 260.423 267.081 L 260.869 267.081 C 268.66 252.33 274.689 244.956 278.962 244.956 C 280.485 244.956 281.247 245.792 281.247 247.464 C 280.196 250.042 279.034 253.55 277.755 257.991 C 274.533 268.962 272.923 277.156 272.923 282.571 Z M 287.379 284.321 C 283.249 284.321 281.182 281.5 281.182 275.858 C 281.182 272.671 281.988 269.492 283.598 266.323 C 285.646 262.319 288.088 260.316 290.925 260.316 C 291.329 260.316 291.66 260.412 291.923 260.603 C 292.185 260.812 292.369 261.117 292.474 261.517 C 290.357 261.517 288.527 263.207 286.986 266.585 C 285.447 269.962 284.675 273.29 284.675 276.563 C 284.675 280.534 285.762 282.519 287.931 282.519 C 289.176 282.519 290.47 281.579 291.817 279.698 C 293.167 277.799 294.286 275.317 295.179 272.253 C 296.072 269.171 296.518 266.07 296.518 262.954 L 296.518 262.353 C 295.468 261.692 294.612 260.856 293.945 259.845 C 293.262 258.853 292.92 258.121 292.92 257.651 C 292.92 257.181 293.131 256.737 293.551 256.319 C 293.971 255.901 294.402 255.692 294.837 255.692 C 295.486 255.692 296.108 256.259 296.702 257.39 C 297.316 258.539 297.737 259.827 297.962 261.256 C 299.013 261.953 299.932 262.301 300.72 262.301 C 301.508 262.301 302.138 262.17 302.611 261.909 C 302.611 262.379 302.445 262.797 302.112 263.163 C 301.781 263.528 301.256 263.711 300.536 263.711 C 299.837 263.711 299.031 263.547 298.12 263.215 C 298.086 266.42 297.605 269.649 296.676 272.906 C 295.73 276.145 294.417 278.862 292.737 281.056 C 291.056 283.232 289.27 284.321 287.379 284.321 Z M 305.027 262.17 C 303.714 262.17 303.057 261.629 303.057 260.551 C 303.057 260.151 303.23 259.898 303.582 259.793 C 303.616 259.759 303.661 259.741 303.714 259.741 C 303.924 259.984 304.307 260.107 304.869 260.107 C 305.41 260.107 306.287 260.073 307.495 260.002 C 309.086 255.752 310.602 253.628 312.038 253.628 C 312.616 253.628 312.905 253.95 312.905 254.595 C 312.361 255.935 311.757 257.651 311.093 259.741 C 314.417 259.375 316.581 259.192 317.579 259.192 C 317.858 259.192 317.999 259.331 317.999 259.61 C 317.999 260.133 317.64 260.394 316.923 260.394 C 316.555 260.394 314.428 260.752 310.541 261.465 C 307.878 269.824 306.55 276.589 306.55 281.761 C 306.55 286.952 307.59 289.546 309.675 289.546 C 310.515 289.546 311.303 289.188 312.038 288.475 C 312.773 287.743 313.299 287.03 313.614 286.333 C 313.735 285.967 314.016 285.87 314.454 286.045 C 314.664 286.098 314.733 286.194 314.664 286.333 C 314.454 286.769 314.199 287.273 313.903 287.848 C 313.603 288.404 313.018 289.102 312.143 289.938 C 311.266 290.773 310.373 291.191 309.465 291.191 C 305.473 291.191 303.477 287.735 303.477 280.821 C 303.477 274.97 304.57 268.719 306.76 262.066 C 306.287 262.136 305.709 262.17 305.027 262.17 Z M 329.785 259.558 C 332.343 259.558 333.619 261.047 333.619 264.025 C 333.619 265.731 333.052 267.517 331.912 269.38 C 329.953 272.496 327.361 274.056 324.139 274.056 C 323.632 274.056 323.212 273.969 322.879 273.794 C 322.548 273.619 322.293 273.369 322.117 273.037 C 324.517 273.037 326.705 271.671 328.682 268.936 C 330.295 266.723 331.098 264.704 331.098 262.875 C 331.098 261.499 330.547 260.812 329.444 260.812 C 327.222 260.812 325.155 262.536 323.246 265.984 C 321.182 269.727 320.147 273.567 320.147 277.504 C 320.147 280.847 321.111 282.859 323.036 283.538 C 323.404 283.66 323.876 283.721 324.454 283.721 C 325.016 283.721 325.62 283.582 326.266 283.303 C 326.896 283.023 327.432 282.684 327.868 282.284 C 328.745 281.466 329.47 280.578 330.048 279.619 C 330.171 279.34 330.426 279.201 330.809 279.201 C 331.405 279.201 331.686 279.306 331.65 279.515 C 331.545 279.881 331.169 280.5 330.52 281.37 C 329.874 282.239 329.27 282.937 328.708 283.459 C 328.149 283.963 327.422 284.426 326.529 284.844 C 325.636 285.262 324.743 285.471 323.85 285.471 C 320.279 285.471 318.005 283.799 317.022 280.455 C 316.726 279.324 316.576 278.157 316.576 276.955 C 316.576 274.709 317.101 272.271 318.152 269.641 C 319.798 265.618 322.064 262.727 324.953 260.969 C 326.529 260.028 328.141 259.558 329.785 259.558 Z M 339.814 282.179 C 339.814 284.512 340.576 285.68 342.099 285.68 C 343.498 285.68 344.811 284.53 346.038 282.232 C 347.28 279.915 347.902 277.007 347.902 273.507 C 347.902 271.801 347.587 269.388 346.957 266.271 C 346.327 263.171 346.012 261.144 346.012 260.185 C 346.012 259.226 346.046 258.599 346.117 258.304 C 345.678 259.002 344.418 261.334 342.335 265.305 C 340.25 269.257 338.404 272.392 336.794 274.709 C 336.652 274.831 336.468 274.865 336.243 274.813 C 336.014 274.779 335.822 274.682 335.665 274.526 C 335.507 274.369 335.429 274.257 335.429 274.186 C 335.429 274.134 335.444 274.089 335.481 274.056 C 337.057 271.775 338.895 268.64 340.996 264.652 C 343.097 260.647 344.856 257.659 346.274 255.692 C 347.692 253.725 349.083 252.74 350.449 252.74 C 351.166 252.74 351.526 253.035 351.526 253.628 C 351.526 254.028 351.237 254.569 350.66 255.248 C 348.837 257.285 347.929 259.375 347.929 261.517 C 347.929 262.789 348.417 265.234 349.399 268.857 C 350.379 272.48 350.87 275.108 350.87 276.746 C 350.87 279.69 350.045 282.187 348.401 284.243 C 346.755 286.299 344.89 287.325 342.808 287.325 C 339.848 287.325 338.37 285.646 338.37 282.284 C 338.37 279.742 339.147 277.078 340.707 274.291 C 342.264 271.522 343.832 269.649 345.408 268.674 C 345.723 268.484 345.922 268.604 346.012 269.04 C 346.08 269.476 346.019 269.753 345.828 269.876 C 344.042 270.887 342.493 273.029 341.18 276.302 C 340.268 278.619 339.814 280.578 339.814 282.179 Z" style="fill: rgb(0, 255, 255); white-space: pre; stroke: rgb(0, 255, 255); stroke-width: 2px;" transform="matrix(1, 0.000025, -0.000025, 1, 0.006821, -0.004903)"/>
  <path d="M 392.021 241.349 C 392.021 245.535 395.708 250.95 397.936 253.177 C 403.769 259.011 406.824 263.231 415.678 264.414 C 408.349 271.744 401.048 274.313 393.204 282.157 C 389.191 286.17 386.444 294.367 384.333 300.491 C 379.616 291.055 379.365 287.637 367.773 285.705 C 364.418 285.114 360.963 285.114 358.902 285.114" style="fill: rgba(216, 216, 216, 0); stroke: rgb(0, 255, 255); stroke-linecap: round; stroke-width: 4px;"/>
  <path d="M 367.773 274.468 C 373.394 275.873 383.342 279.391 384.333 284.523" style="stroke: rgb(0, 255, 255); fill: rgba(216, 216, 216, 0); stroke-linecap: round; stroke-width: 4px;"/>
  <path d="M 386.699 252.403 C 388.075 258.244 395.825 266.005 402.076 266.005" style="stroke: rgb(0, 255, 255); fill: rgba(216, 216, 216, 0); stroke-linecap: round; stroke-width: 4px;"/>
  <path d="M 376.827 264.231 C 380.548 265.719 389.783 274.877 392.205 274.877" style="stroke: rgb(0, 255, 255); fill: rgba(216, 216, 216, 0); stroke-linecap: round; stroke-width: 4px;"/>
</svg>