<?xml version="1.0" encoding="utf-8"?>
<svg viewBox="358.902 241.349 56.776 59.142" xmlns="http://www.w3.org/2000/svg">
  <path d="M 392.021 241.349 C 392.021 245.535 395.708 250.95 397.936 253.177 C 403.769 259.011 406.824 263.231 415.678 264.414 C 408.349 271.744 401.048 274.313 393.204 282.157 C 389.191 286.17 386.444 294.367 384.333 300.491 C 379.616 291.055 379.365 287.637 367.773 285.705 C 364.418 285.114 360.963 285.114 358.902 285.114" style="fill: rgba(216, 216, 216, 0); stroke: rgb(0, 255, 255); stroke-linecap: round; stroke-width: 4px;"/>
  <path d="M 367.773 274.468 C 373.394 275.873 383.342 279.391 384.333 284.523" style="stroke: rgb(0, 255, 255); fill: rgba(216, 216, 216, 0); stroke-linecap: round; stroke-width: 4px;"/>
  <path d="M 386.699 252.403 C 388.075 258.244 395.825 266.005 402.076 266.005" style="stroke: rgb(0, 255, 255); fill: rgba(216, 216, 216, 0); stroke-linecap: round; stroke-width: 4px;"/>
  <path d="M 376.827 264.231 C 380.548 265.719 389.783 274.877 392.205 274.877" style="stroke: rgb(0, 255, 255); fill: rgba(216, 216, 216, 0); stroke-linecap: round; stroke-width: 4px;"/>
</svg>