<?xml version="1.0" encoding="utf-8"?>
<svg viewBox="101.062 208.288 310.789 55.77" xmlns="http://www.w3.org/2000/svg">
  <path d="M 140.899 246.06 C 140.899 250.605 141.942 252.878 144.024 252.878 C 145.371 252.878 146.493 251.893 147.386 249.926 C 147.596 249.579 147.903 249.474 148.305 249.612 C 148.481 249.683 148.523 249.821 148.436 250.03 C 148.349 250.258 148.218 250.527 148.042 250.84 C 147.885 251.154 147.588 251.65 147.149 252.329 C 146.133 253.792 144.97 254.523 143.657 254.523 C 139.594 254.523 137.564 251.318 137.564 244.911 C 137.564 237.683 140.138 226.398 145.285 211.057 C 145.424 210.657 145.345 210.456 145.048 210.456 C 144.767 210.456 144.463 210.605 144.129 210.9 C 142.344 212.572 140.513 214.811 138.641 217.613 C 136.784 220.416 135.148 223.264 133.73 226.155 C 131.243 231.137 129.415 235.279 128.242 238.589 C 126.666 243.239 125.274 245.564 124.066 245.564 C 123.349 245.564 122.99 245.206 122.99 244.493 C 122.99 244.459 123.008 244.422 123.042 244.388 C 127.244 229.256 129.345 219.748 129.345 215.863 C 129.345 214.121 128.959 213.251 128.189 213.251 C 126.648 213.251 124.216 216.117 120.889 221.845 C 117.546 227.592 115.033 233.339 113.352 239.085 C 111.338 246 109.562 249.456 108.021 249.456 C 107.32 249.456 106.971 249.09 106.971 248.359 C 107.005 248.254 107.102 247.975 107.259 247.523 C 107.435 247.053 107.653 246.355 107.916 245.433 C 108.179 244.511 108.607 243.056 109.203 241.071 C 109.799 239.085 110.298 237.152 110.7 235.272 C 112.047 229.055 112.722 224.57 112.722 221.819 C 112.722 220.356 112.617 218.893 112.406 217.431 C 112.196 215.986 111.69 214.811 110.883 213.904 C 110.077 212.998 109.019 212.546 107.706 212.546 C 105.657 212.546 104.213 213.4 103.373 215.106 C 103.11 215.714 102.979 216.229 102.979 216.647 C 102.979 217.065 103.092 217.274 103.32 217.274 C 103.234 217.744 102.829 217.979 102.112 217.979 C 101.411 217.979 101.062 217.527 101.062 216.621 C 101.062 215.244 101.763 214.027 103.163 212.964 C 104.547 211.885 106.13 211.344 107.916 211.344 C 109.702 211.344 111.12 211.788 112.17 212.676 C 113.239 213.565 114.008 214.74 114.481 216.203 C 115.251 218.658 115.637 221.304 115.637 224.144 C 115.637 225.207 115.566 226.312 115.426 227.461 L 115.925 227.461 C 121.283 216.681 125.773 211.292 129.397 211.292 C 131.48 211.292 132.522 213.068 132.522 216.621 C 132.522 218.327 132.136 221.315 131.367 225.581 L 131.813 225.581 C 137.976 214.053 143.019 208.288 146.939 208.288 C 148.462 208.288 149.224 209.124 149.224 210.796 C 148.173 213.374 147.01 216.882 145.731 221.323 C 142.509 232.328 140.899 240.574 140.899 246.06 Z M 151.233 262.908 C 154.261 262.908 156.635 261.49 158.349 258.651 C 159.82 256.143 160.957 253.016 161.763 249.273 C 155.689 249.396 151.015 251.702 147.74 256.195 C 147.548 256.49 147.233 256.535 146.795 256.326 C 146.551 256.203 146.48 256.038 146.585 255.829 C 148.037 253.654 150.059 251.807 152.651 250.292 C 155.224 248.777 158.368 247.949 162.078 247.81 C 162.446 246.138 162.795 244.179 163.129 241.933 C 163.462 239.705 163.846 237.536 164.284 235.428 L 163.838 235.428 C 159.46 243.142 156.136 247 153.859 247 C 151.304 247 150.025 245.049 150.025 241.149 C 150.025 237.231 150.865 233.294 152.546 229.342 C 154.227 225.372 155.75 223.237 157.115 222.942 L 157.43 222.89 C 158.008 222.89 158.297 223.256 158.297 223.987 C 157.929 224.894 157.457 226.069 156.879 227.514 C 156.301 228.976 155.54 231.372 154.594 234.697 C 153.667 238.022 153.202 240.619 153.202 242.481 C 153.202 244.328 153.604 245.25 154.41 245.25 C 155.356 245.25 156.871 243.631 158.953 240.392 C 162 235.637 164.652 230.823 166.91 225.946 C 167.89 223.909 168.933 222.89 170.035 222.89 C 170.737 222.89 171.086 223.274 171.086 224.039 C 170.456 225.207 169.686 227.391 168.775 230.596 C 167.864 233.817 167.128 237.056 166.569 240.313 C 165.991 243.571 165.5 246.12 165.098 247.967 C 167.654 248.403 169.135 249.508 169.536 251.284 C 169.607 251.579 169.642 251.99 169.642 252.512 C 169.642 253.016 169.439 253.46 169.038 253.844 C 168.636 254.228 168.276 254.419 167.961 254.419 C 168.032 254.192 168.048 253.784 168.013 253.191 C 167.979 252.616 167.874 252.128 167.698 251.728 C 167.507 251.329 167.155 250.911 166.648 250.474 C 166.157 250.038 165.5 249.717 164.678 249.508 C 162.105 259.207 157.622 264.058 151.233 264.058 C 148.468 264.058 146.637 263.091 145.744 261.158 C 145.71 261.054 145.692 260.968 145.692 260.897 C 145.692 260.706 145.868 260.584 146.217 260.531 C 146.566 260.479 146.829 260.584 147.005 260.845 C 147.601 262.221 149.009 262.908 151.233 262.908 Z M 202.515 221.427 C 202.515 221.566 202.365 221.654 202.068 221.688 C 201.787 221.722 201.506 221.67 201.228 221.532 C 200.928 221.393 200.781 221.21 200.781 220.983 C 200.781 217.569 201.175 214.818 201.963 212.729 C 202.733 210.639 203.738 209.594 204.983 209.594 C 205.314 209.594 205.595 209.706 205.823 209.934 C 206.068 210.177 206.191 210.5 206.191 210.9 C 204.65 212.433 203.555 214.669 202.909 217.613 C 202.646 218.815 202.515 220.087 202.515 221.427 Z M 199.468 210.796 C 194.847 210.796 190.697 213.486 187.021 218.867 C 183.87 223.517 181.803 228.932 180.823 235.115 C 180.49 237.152 180.324 239.025 180.324 240.731 C 180.324 244.004 180.928 246.642 182.136 248.646 C 183.344 250.631 185.041 251.624 187.231 251.624 C 190.188 251.624 192.709 249.934 194.794 246.556 C 196.212 244.276 196.921 242.272 196.921 240.548 C 196.921 239.765 196.719 239.373 196.317 239.373 C 196.509 238.607 197.008 238.223 197.814 238.223 C 198.759 238.223 199.232 238.895 199.232 240.235 C 199.232 242.742 198.119 245.415 195.897 248.254 C 193.234 251.632 190.127 253.322 186.574 253.322 C 182.11 253.322 179.08 251.101 177.488 246.661 C 176.716 244.589 176.333 242.238 176.333 239.608 C 176.333 236.977 176.769 234.044 177.646 230.805 C 179.326 224.397 182.163 219.068 186.154 214.818 C 190.127 210.568 194.539 208.426 199.39 208.392 C 200.054 208.392 200.535 208.609 200.834 209.045 C 201.149 209.482 201.288 209.9 201.254 210.299 L 201.254 210.952 C 200.973 210.848 200.377 210.796 199.468 210.796 Z M 209.96 247.653 C 205.829 247.653 203.762 244.832 203.762 239.19 C 203.762 236.003 204.568 232.824 206.178 229.655 C 208.226 225.651 210.669 223.648 213.505 223.648 C 213.909 223.648 214.24 223.744 214.503 223.935 C 214.765 224.144 214.949 224.449 215.054 224.849 C 212.937 224.849 211.107 226.539 209.566 229.917 C 208.027 233.294 207.255 236.622 207.255 239.895 C 207.255 243.866 208.342 245.851 210.511 245.851 C 211.756 245.851 213.05 244.911 214.398 243.03 C 215.747 241.131 216.866 238.649 217.759 235.585 C 218.652 232.503 219.098 229.402 219.098 226.286 L 219.098 225.685 C 218.048 225.024 217.192 224.188 216.525 223.177 C 215.842 222.185 215.5 221.453 215.5 220.983 C 215.5 220.513 215.711 220.069 216.131 219.651 C 216.551 219.233 216.982 219.024 217.418 219.024 C 218.066 219.024 218.689 219.591 219.282 220.722 C 219.897 221.871 220.317 223.159 220.543 224.588 C 221.593 225.285 222.512 225.633 223.3 225.633 C 224.088 225.633 224.718 225.502 225.191 225.241 C 225.191 225.711 225.025 226.129 224.692 226.495 C 224.361 226.86 223.836 227.043 223.116 227.043 C 222.418 227.043 221.611 226.879 220.7 226.547 C 220.666 229.752 220.185 232.981 219.256 236.238 C 218.31 239.477 216.997 242.194 215.317 244.388 C 213.636 246.564 211.85 247.653 209.96 247.653 Z M 242.286 250.971 C 242.688 250.971 243.064 250.796 243.416 250.448 C 243.765 250.101 244.098 249.552 244.413 248.803 C 244.448 248.508 244.65 248.359 245.017 248.359 C 245.385 248.359 245.524 248.508 245.438 248.803 C 245.348 249.116 245.217 249.49 245.044 249.926 C 244.849 250.362 244.455 250.937 243.862 251.65 C 243.284 252.363 242.688 252.721 242.076 252.721 C 240.745 252.721 239.702 251.885 238.951 250.213 C 238.179 248.541 237.796 246.478 237.796 244.022 C 237.796 241.567 237.98 239.033 238.347 236.421 L 237.901 236.421 C 233.838 243.474 230.713 247 228.526 247 C 225.934 247 224.639 245.041 224.639 241.123 C 224.639 237.186 225.48 233.26 227.16 229.342 C 229.014 225.04 230.642 222.89 232.045 222.89 C 232.657 222.89 232.964 223.256 232.964 223.987 C 231.546 227.696 230.338 231.309 229.34 234.828 C 228.324 238.328 227.817 240.94 227.817 242.664 C 227.817 244.388 228.219 245.25 229.025 245.25 C 229.602 245.25 230.451 244.563 231.572 243.187 C 232.691 241.828 233.846 240.156 235.038 238.171 C 237.559 233.939 239.476 230.335 240.789 227.357 C 242.118 224.379 243.494 222.89 244.912 222.89 C 245.577 222.89 245.91 223.256 245.91 223.987 C 243.757 228.237 242.234 233.305 241.341 239.19 C 240.955 241.523 240.763 243.813 240.763 246.06 C 240.763 249.333 241.27 250.971 242.286 250.971 Z M 264.634 232.816 C 263.355 232.816 262.717 231.432 262.717 228.663 C 262.717 227.077 263.014 225.607 263.61 224.248 C 261.333 226.215 258.778 229.883 255.942 235.246 C 253.121 240.608 251.714 244.109 251.714 245.746 C 251.714 246.146 251.441 246.347 250.9 246.347 C 249.936 246.347 249.456 245.033 249.456 242.403 C 249.456 237.421 249.954 232.902 250.952 228.846 C 251.966 224.805 253.192 222.785 254.629 222.785 C 255.275 222.785 255.6 223.151 255.6 223.883 C 254.059 228.775 252.948 233.775 252.265 238.876 L 252.633 238.876 C 255.346 232.626 258.347 227.749 261.64 224.248 C 263.531 222.229 265.246 221.218 266.788 221.218 C 267.118 221.218 267.399 221.323 267.628 221.532 C 267.838 221.722 267.943 221.976 267.943 222.289 C 267.715 222.516 267.434 222.864 267.103 223.334 C 266.751 223.804 266.296 224.92 265.737 226.678 C 265.159 228.436 264.871 230.353 264.871 232.424 C 264.871 232.686 264.792 232.816 264.634 232.816 Z M 271.47 245.511 C 271.47 247.844 272.231 249.012 273.754 249.012 C 275.154 249.012 276.467 247.862 277.694 245.564 C 278.936 243.247 279.558 240.339 279.558 236.839 C 279.558 235.133 279.243 232.72 278.613 229.603 C 277.982 226.503 277.667 224.476 277.667 223.517 C 277.667 222.558 277.701 221.931 277.772 221.636 C 277.334 222.334 276.073 224.666 273.991 228.637 C 271.908 232.589 270.06 235.724 268.45 238.041 C 268.311 238.163 268.127 238.197 267.898 238.145 C 267.67 238.111 267.478 238.014 267.321 237.858 C 267.163 237.701 267.084 237.589 267.084 237.518 C 267.084 237.466 267.103 237.421 267.137 237.388 C 268.712 235.107 270.551 231.972 272.652 227.984 C 274.752 223.979 276.512 220.991 277.93 219.024 C 279.348 217.057 280.74 216.072 282.105 216.072 C 282.822 216.072 283.182 216.367 283.182 216.96 C 283.182 217.36 282.893 217.901 282.315 218.58 C 280.496 220.617 279.584 222.707 279.584 224.849 C 279.584 226.121 280.075 228.566 281.055 232.189 C 282.034 235.812 282.526 238.44 282.526 240.078 C 282.526 243.022 281.704 245.519 280.057 247.575 C 278.41 249.631 276.546 250.657 274.464 250.657 C 271.504 250.657 270.025 248.978 270.025 245.616 C 270.025 243.074 270.805 240.41 272.363 237.623 C 273.92 234.854 275.488 232.981 277.063 232.006 C 277.378 231.816 277.581 231.936 277.667 232.372 C 277.738 232.808 277.675 233.085 277.483 233.208 C 275.698 234.219 274.148 236.361 272.835 239.634 C 271.924 241.951 271.47 243.91 271.47 245.511 Z M 300.162 222.89 C 302.72 222.89 303.996 224.379 303.996 227.357 C 303.996 229.063 303.429 230.849 302.289 232.712 C 300.33 235.828 297.738 237.388 294.516 237.388 C 294.009 237.388 293.589 237.301 293.256 237.126 C 292.925 236.951 292.67 236.701 292.494 236.369 C 294.894 236.369 297.082 235.003 299.059 232.268 C 300.672 230.055 301.475 228.036 301.475 226.207 C 301.475 224.831 300.924 224.144 299.821 224.144 C 297.599 224.144 295.532 225.868 293.623 229.316 C 291.559 233.059 290.525 236.899 290.525 240.836 C 290.525 244.179 291.488 246.191 293.413 246.87 C 293.781 246.992 294.254 247.053 294.831 247.053 C 295.393 247.053 295.997 246.914 296.643 246.635 C 297.274 246.355 297.809 246.016 298.245 245.616 C 299.122 244.798 299.847 243.91 300.425 242.951 C 300.548 242.672 300.803 242.533 301.186 242.533 C 301.782 242.533 302.063 242.638 302.027 242.847 C 301.922 243.213 301.546 243.832 300.897 244.702 C 300.251 245.571 299.647 246.269 299.085 246.791 C 298.526 247.295 297.799 247.758 296.906 248.176 C 296.013 248.594 295.12 248.803 294.227 248.803 C 290.656 248.803 288.382 247.131 287.4 243.787 C 287.103 242.656 286.953 241.489 286.953 240.287 C 286.953 238.041 287.478 235.603 288.529 232.973 C 290.175 228.95 292.442 226.059 295.33 224.301 C 296.906 223.36 298.518 222.89 300.162 222.89 Z M 333.248 245.903 C 333.248 250.553 334.291 252.878 336.373 252.878 C 337.652 252.878 338.789 251.893 339.787 249.926 C 339.963 249.579 340.252 249.474 340.653 249.612 C 340.864 249.683 340.916 249.821 340.811 250.03 C 340.706 250.258 340.567 250.527 340.391 250.84 C 340.233 251.154 339.944 251.642 339.524 252.303 C 339.104 252.948 338.579 253.478 337.949 253.896 C 337.337 254.314 336.688 254.523 336.005 254.523 C 331.943 254.523 329.913 251.337 329.913 244.963 C 329.913 238.362 332.085 228.114 336.425 214.218 L 337.213 211.658 C 337.284 211.378 337.213 211.24 337.003 211.24 C 336.775 211.24 336.565 211.326 336.373 211.501 C 334.482 213.139 332.468 215.55 330.333 218.737 C 328.198 221.942 326.244 225.311 324.477 228.846 C 321.186 235.342 318.797 240.399 317.308 244.022 C 315.837 247.646 314.611 249.456 313.631 249.456 C 312.93 249.456 312.581 249.09 312.581 248.359 L 312.581 248.254 C 312.983 247.348 313.755 244.858 314.892 240.783 C 316.906 233.66 318.043 227.312 318.306 221.741 C 318.34 221.341 318.358 220.965 318.358 220.617 C 318.358 218.457 317.972 216.569 317.203 214.949 C 316.433 213.348 315.076 212.546 313.132 212.546 C 311.171 212.546 309.771 213.434 308.931 215.21 C 308.668 215.785 308.537 216.273 308.537 216.673 C 308.537 217.073 308.65 217.274 308.878 217.274 C 308.826 217.744 308.44 217.979 307.723 217.979 C 307.021 217.979 306.672 217.527 306.672 216.621 C 306.672 215.244 307.373 214.027 308.773 212.964 C 310.157 211.885 311.872 211.344 313.92 211.344 C 318.805 211.344 321.247 215.759 321.247 224.588 C 321.247 226.503 321.081 228.446 320.748 230.413 L 321.194 230.413 C 328.986 215.662 335.015 208.288 339.288 208.288 C 340.811 208.288 341.573 209.124 341.573 210.796 C 340.522 213.374 339.359 216.882 338.08 221.323 C 334.858 232.294 333.248 240.488 333.248 245.903 Z M 347.704 247.653 C 343.574 247.653 341.507 244.832 341.507 239.19 C 341.507 236.003 342.313 232.824 343.923 229.655 C 345.971 225.651 348.413 223.648 351.25 223.648 C 351.654 223.648 351.985 223.744 352.248 223.935 C 352.51 224.144 352.694 224.449 352.799 224.849 C 350.682 224.849 348.852 226.539 347.311 229.917 C 345.772 233.294 345 236.622 345 239.895 C 345 243.866 346.087 245.851 348.256 245.851 C 349.501 245.851 350.795 244.911 352.142 243.03 C 353.492 241.131 354.611 238.649 355.504 235.585 C 356.397 232.503 356.843 229.402 356.843 226.286 L 356.843 225.685 C 355.793 225.024 354.937 224.188 354.27 223.177 C 353.587 222.185 353.245 221.453 353.245 220.983 C 353.245 220.513 353.456 220.069 353.876 219.651 C 354.296 219.233 354.727 219.024 355.162 219.024 C 355.811 219.024 356.433 219.591 357.027 220.722 C 357.641 221.871 358.062 223.159 358.287 224.588 C 359.338 225.285 360.257 225.633 361.045 225.633 C 361.833 225.633 362.463 225.502 362.936 225.241 C 362.936 225.711 362.77 226.129 362.437 226.495 C 362.106 226.86 361.581 227.043 360.861 227.043 C 360.162 227.043 359.356 226.879 358.445 226.547 C 358.411 229.752 357.93 232.981 357.001 236.238 C 356.055 239.477 354.742 242.194 353.062 244.388 C 351.381 246.564 349.595 247.653 347.704 247.653 Z M 365.352 225.502 C 364.039 225.502 363.382 224.961 363.382 223.883 C 363.382 223.483 363.555 223.23 363.907 223.125 C 363.941 223.091 363.986 223.073 364.039 223.073 C 364.249 223.316 364.632 223.439 365.194 223.439 C 365.735 223.439 366.612 223.405 367.82 223.334 C 369.411 219.084 370.927 216.96 372.363 216.96 C 372.941 216.96 373.23 217.282 373.23 217.927 C 372.686 219.267 372.082 220.983 371.418 223.073 C 374.742 222.707 376.906 222.524 377.904 222.524 C 378.183 222.524 378.324 222.663 378.324 222.942 C 378.324 223.465 377.965 223.726 377.248 223.726 C 376.88 223.726 374.753 224.084 370.866 224.797 C 368.203 233.156 366.875 239.921 366.875 245.093 C 366.875 250.284 367.915 252.878 370 252.878 C 370.84 252.878 371.628 252.52 372.363 251.807 C 373.098 251.075 373.624 250.362 373.939 249.665 C 374.06 249.299 374.341 249.202 374.779 249.377 C 374.989 249.43 375.058 249.526 374.989 249.665 C 374.779 250.101 374.524 250.605 374.228 251.18 C 373.928 251.736 373.343 252.434 372.468 253.27 C 371.591 254.105 370.698 254.523 369.79 254.523 C 365.798 254.523 363.802 251.067 363.802 244.153 C 363.802 238.302 364.895 232.051 367.085 225.398 C 366.612 225.468 366.034 225.502 365.352 225.502 Z M 390.11 222.89 C 392.668 222.89 393.944 224.379 393.944 227.357 C 393.944 229.063 393.377 230.849 392.237 232.712 C 390.278 235.828 387.686 237.388 384.464 237.388 C 383.957 237.388 383.537 237.301 383.204 237.126 C 382.873 236.951 382.618 236.701 382.442 236.369 C 384.842 236.369 387.03 235.003 389.007 232.268 C 390.62 230.055 391.423 228.036 391.423 226.207 C 391.423 224.831 390.872 224.144 389.769 224.144 C 387.547 224.144 385.48 225.868 383.571 229.316 C 381.507 233.059 380.472 236.899 380.472 240.836 C 380.472 244.179 381.436 246.191 383.361 246.87 C 383.729 246.992 384.201 247.053 384.779 247.053 C 385.341 247.053 385.945 246.914 386.591 246.635 C 387.221 246.355 387.757 246.016 388.193 245.616 C 389.07 244.798 389.795 243.91 390.373 242.951 C 390.496 242.672 390.751 242.533 391.134 242.533 C 391.73 242.533 392.011 242.638 391.975 242.847 C 391.87 243.213 391.494 243.832 390.845 244.702 C 390.199 245.571 389.595 246.269 389.033 246.791 C 388.474 247.295 387.747 247.758 386.854 248.176 C 385.961 248.594 385.068 248.803 384.175 248.803 C 380.604 248.803 378.33 247.131 377.347 243.787 C 377.051 242.656 376.901 241.489 376.901 240.287 C 376.901 238.041 377.426 235.603 378.477 232.973 C 380.123 228.95 382.389 226.059 385.278 224.301 C 386.854 223.36 388.466 222.89 390.11 222.89 Z M 400.139 245.511 C 400.139 247.844 400.901 249.012 402.424 249.012 C 403.823 249.012 405.136 247.862 406.363 245.564 C 407.605 243.247 408.227 240.339 408.227 236.839 C 408.227 235.133 407.912 232.72 407.282 229.603 C 406.652 226.503 406.337 224.476 406.337 223.517 C 406.337 222.558 406.371 221.931 406.442 221.636 C 406.003 222.334 404.743 224.666 402.66 228.637 C 400.575 232.589 398.729 235.724 397.119 238.041 C 396.977 238.163 396.793 238.197 396.568 238.145 C 396.339 238.111 396.147 238.014 395.99 237.858 C 395.832 237.701 395.754 237.589 395.754 237.518 C 395.754 237.466 395.769 237.421 395.806 237.388 C 397.382 235.107 399.22 231.972 401.321 227.984 C 403.422 223.979 405.181 220.991 406.599 219.024 C 408.017 217.057 409.409 216.072 410.775 216.072 C 411.492 216.072 411.851 216.367 411.851 216.96 C 411.851 217.36 411.562 217.901 410.985 218.58 C 409.162 220.617 408.254 222.707 408.254 224.849 C 408.254 226.121 408.742 228.566 409.724 232.189 C 410.704 235.812 411.195 238.44 411.195 240.078 C 411.195 243.022 410.37 245.519 408.726 247.575 C 407.08 249.631 405.215 250.657 403.133 250.657 C 400.173 250.657 398.695 248.978 398.695 245.616 C 398.695 243.074 399.472 240.41 401.032 237.623 C 402.589 234.854 404.157 232.981 405.733 232.006 C 406.048 231.816 406.247 231.936 406.337 232.372 C 406.405 232.808 406.344 233.085 406.153 233.208 C 404.367 234.219 402.818 236.361 401.505 239.634 C 400.593 241.951 400.139 243.91 400.139 245.511 Z" style="fill: rgb(0, 255, 255); white-space: pre; stroke: rgb(0, 255, 255); stroke-width: 2px;"/>
</svg>